<svg xmlns="http://www.w3.org/2000/svg" version="1.1" xmlns:xlink="http://www.w3.org/1999/xlink" xmlns:svgjs="http://svgjs.dev/svgjs" width="1440" height="560" preserveAspectRatio="none" viewBox="0 0 1440 560"><g clip-path="url(&quot;#SvgjsClipPath1007&quot;)" fill="none"><rect width="1440" height="560" x="0" y="0" fill="#0e2a47"></rect><path d="M78.42 158.16C94.45 158.71 111.37 155.94 122.64 144.53 133.86 133.18 135.44 116.27 135.57 100.31 135.7 84.17 134.25 67.28 123.37 55.36 112.09 43 95.14 37.29 78.42 37.71 62.1 38.12 47.58 46.38 35.68 57.57 23.33 69.18 11.57 83.36 11.86 100.31 12.14 117.09 24.45 130.61 37.11 141.62 48.75 151.74 63.01 157.64 78.42 158.16" fill="rgba(65, 0, 102, 1)" stroke="none"></path><path d="M70.42 168.16C86.45 168.71 103.37 165.94 114.64 154.53 125.86 143.18 127.44 126.27 127.57 110.31 127.7 94.17 126.25 77.28 115.37 65.36 104.09 53 87.14 47.29 70.42 47.71 54.1 48.12 39.58 56.38 27.68 67.57 15.33 79.18 3.57 93.36 3.86 110.31 4.14 127.09 16.45 140.61 29.11 151.62 40.75 161.74 55.01 167.64 70.42 168.16" fill="none" stroke-width="2" stroke="#2e0047"></path><path d="M986.59 539.1C1009.16 540.55 1027.39 522.99 1043.5 507.11 1059.78 491.07 1075.8 473.03 1076.8 450.2 1077.83 426.6 1067.23 402.74 1048.71 388.08 1031.65 374.58 1008.35 378.53 986.59 378.8 965.27 379.07 942.58 376.2 926.02 389.63 908.12 404.15 896.36 427.25 898.54 450.2 900.6 471.88 921.21 484.78 936.54 500.25 951.99 515.85 964.67 537.7 986.59 539.1" fill="rgba(65, 0, 102, 1)" stroke="none"></path><path d="M1000.59 556.1C1023.16 557.55 1041.39 539.99 1057.5 524.11 1073.78 508.07 1089.8 490.03 1090.8 467.2 1091.83 443.6 1081.23 419.74 1062.71 405.08 1045.65 391.58 1022.35 395.53 1000.59 395.8 979.27 396.07 956.58 393.2 940.02 406.63 922.12 421.15 910.36 444.25 912.54 467.2 914.6 488.88 935.21 501.78 950.54 517.25 965.99 532.85 978.67 554.7 1000.59 556.1" fill="none" stroke-width="2" stroke="#2e0047"></path><path d="M127.96 372.43C146.67 373.47 166.05 369.22 179.54 356.21 193.23 343.01 198.13 323.65 198.3 304.63 198.48 285.41 194.06 265.71 180.49 252.1 166.9 238.46 147.21 234.46 127.96 234.05 108.19 233.63 87.34 236.06 73.12 249.79 58.71 263.7 53.16 284.67 54.87 304.63 56.45 323.08 68.21 338.2 81.79 350.8 94.74 362.82 110.32 371.45 127.96 372.43" fill="rgba(253, 215, 61, 1)" stroke="none"></path><path d="M112.96 386.43C131.67 387.47 151.05 383.22 164.54 370.21 178.23 357.01 183.13 337.65 183.3 318.63 183.48 299.41 179.06 279.71 165.49 266.1 151.9 252.46 132.21 248.46 112.96 248.05 93.19 247.63 72.34 250.06 58.12 263.79 43.71 277.7 38.16 298.67 39.87 318.63 41.45 337.08 53.21 352.2 66.79 364.8 79.74 376.82 95.32 385.45 112.96 386.43" fill="none" stroke-width="2" stroke="#daaf02"></path><path d="M877.42 114.11C904.46 114.6 929.8 100.16 947.43 79.66 963.87 60.55 966.11 34.83 967.25 9.65 968.47-17.27 971.8-46.7 954.08-67.01 935.62-88.17 905.41-95.56 877.42-93.3 851.39-91.2 828.88-75.66 812.19-55.58 797.06-37.37 792.29-14.02 791.88 9.65 791.47 33.86 794.58 58.42 809.92 77.15 826.82 97.78 850.75 113.62 877.42 114.11" fill="rgba(65, 0, 102, 1)" stroke="none"></path><path d="M871.42 130.11C898.46 130.6 923.8 116.16 941.43 95.66 957.87 76.55 960.11 50.83 961.25 25.65 962.47-1.27 965.8-30.7 948.08-51.01 929.62-72.17 899.41-79.56 871.42-77.3 845.39-75.2 822.88-59.66 806.19-39.58 791.06-21.37 786.29 1.98 785.88 25.65 785.47 49.86 788.58 74.42 803.92 93.15 820.82 113.78 844.75 129.62 871.42 130.11" fill="none" stroke-width="2" stroke="#2e0047"></path><path d="M752.02 474.89C766.21 474.85 781.31 473.91 791.51 464.05 801.83 454.07 805.15 438.88 804.06 424.56 803.05 411.28 795 400.4 785.92 390.66 776.38 380.43 765.98 369.63 752.02 368.74 737.41 367.8 724.23 376.09 713.48 386.02 702.2 396.44 691.83 409.2 691.6 424.56 691.36 440.08 700.38 454.35 712.3 464.28 723.25 473.4 737.77 474.93 752.02 474.89" fill="rgba(201, 222, 251, 1)" stroke="none"></path><path d="M771.02 485.89C785.21 485.85 800.31 484.91 810.51 475.05 820.83 465.07 824.15 449.88 823.06 435.56 822.05 422.28 814 411.4 804.92 401.66 795.38 391.43 784.98 380.63 771.02 379.74 756.41 378.8 743.23 387.09 732.48 397.02 721.2 407.44 710.83 420.2 710.6 435.56 710.36 451.08 719.38 465.35 731.3 475.28 742.25 484.4 756.77 485.93 771.02 485.89" fill="none" stroke-width="2" stroke="#4b91f2"></path><path d="M383.62 310.05C410.19 307.79 434.23 294.82 452.22 275.13 469.36 256.36 478.06 231.95 478.19 206.53 478.32 180.97 470.67 155.63 452.9 137.25 434.86 118.59 409.58 108.46 383.62 108.72 357.91 108.97 335.53 122.25 315.7 138.61 293.05 157.29 267.67 177.29 265.04 206.53 262.26 237.41 278.93 267.48 302.28 287.87 324.29 307.09 354.5 312.52 383.62 310.05" fill="rgba(65, 0, 102, 1)" stroke="none"></path><path d="M375.62 296.05C402.19 293.79 426.23 280.82 444.22 261.13 461.36 242.36 470.06 217.95 470.19 192.53 470.32 166.97 462.67 141.63 444.9 123.25 426.86 104.59 401.58 94.46 375.62 94.72 349.91 94.97 327.53 108.25 307.7 124.61 285.05 143.29 259.67 163.29 257.04 192.53 254.26 223.41 270.93 253.48 294.28 273.87 316.29 293.09 346.5 298.52 375.62 296.05" fill="none" stroke-width="2" stroke="#2e0047"></path><path d="M1371.38 67.22C1384.02 67.08 1394.38 58.84 1403.71 50.31 1413.63 41.23 1424.99 31.43 1425.2 17.98 1425.41 4.42 1414.64-6.12 1404.73-15.37 1395.26-24.21 1384.33-31.91 1371.38-32.25 1358.13-32.59 1345.66-26.48 1336.25-17.15 1326.8-7.78 1320.33 4.68 1320.74 17.98 1321.14 30.94 1329.04 41.98 1338.34 51.02 1347.48 59.91 1358.63 67.36 1371.38 67.22" fill="rgba(255, 231, 137, 1)" stroke="none"></path><path d="M1388.38 74.22C1401.02 74.08 1411.38 65.84 1420.71 57.31 1430.63 48.23 1441.99 38.43 1442.2 24.98 1442.41 11.42 1431.64 0.88 1421.73-8.37 1412.26-17.21 1401.33-24.91 1388.38-25.25 1375.13-25.59 1362.66-19.48 1353.25-10.15 1343.8-0.78 1337.33 11.68 1337.74 24.98 1338.14 37.94 1346.04 48.98 1355.34 58.02 1364.48 66.91 1375.63 74.36 1388.38 74.22" fill="none" stroke-width="2" stroke="#ffcf13"></path><path d="M1334.14 591.02C1356.56 591.98 1379.81 586.5 1395.55 570.5 1411.18 554.61 1415.95 531.35 1414.74 509.09 1413.6 488.08 1404.13 468.86 1389.22 454.01 1374.35 439.2 1355.12 428.09 1334.14 428.8 1313.71 429.49 1297.77 443.85 1282.66 457.61 1266.47 472.36 1246.99 487.21 1246 509.09 1244.99 531.49 1261.37 550.18 1277.79 565.44 1293.49 580.04 1312.72 590.1 1334.14 591.02" fill="rgba(253, 215, 61, 1)" stroke="none"></path><path d="M1323.14 581.02C1345.56 581.98 1368.81 576.5 1384.55 560.5 1400.18 544.61 1404.95 521.35 1403.74 499.09 1402.6 478.08 1393.13 458.86 1378.22 444.01 1363.35 429.2 1344.12 418.09 1323.14 418.8 1302.71 419.49 1286.77 433.85 1271.66 447.61 1255.47 462.36 1235.99 477.21 1235 499.09 1233.99 521.49 1250.37 540.18 1266.79 555.44 1282.49 570.04 1301.72 580.1 1323.14 581.02" fill="none" stroke-width="2" stroke="#daaf02"></path></g><defs><clipPath id="SvgjsClipPath1007"><rect width="1440" height="560" x="0" y="0"></rect></clipPath></defs></svg>