<svg xmlns="http://www.w3.org/2000/svg" version="1.1" xmlns:xlink="http://www.w3.org/1999/xlink" xmlns:svgjs="http://svgjs.dev/svgjs" width="1440" height="560" preserveAspectRatio="none" viewBox="0 0 1440 560"><g mask="url(&quot;#SvgjsMask1006&quot;)" fill="none"><rect width="1440" height="560" x="0" y="0" fill="#0e2a47"></rect><path d="M396.81 379.91a15.55 15.55 0 1 0-17.97-25.38z" stroke="rgba(74, 144, 246, 1)"></path><path d="M1004.71 255.8L1041.95 255.8L1041.95 293.04L1004.71 293.04z" stroke="rgba(74, 144, 246, 1)"></path><path d="M734.52 407.59L774.93 407.59L774.93 448L734.52 448z" fill="rgba(181, 228, 184, 1)"></path><path d="M1023.76 83.47L1025.01 83.47L1025.01 84.72L1023.76 84.72z" fill="rgba(255, 231, 137, 1)"></path><path d="M61.68 520.46L77.4 520.46L77.4 525.95L61.68 525.95z" fill="rgba(74, 144, 246, 1)"></path><path d="M80.46 16.59 a13.16 13.16 0 1 0 26.32 0 a13.16 13.16 0 1 0 -26.32 0z" fill="rgba(255, 231, 137, 1)"></path><path d="M312.81 158.58 a48.93 48.93 0 1 0 97.86 0 a48.93 48.93 0 1 0 -97.86 0z" fill="rgba(253, 215, 61, 1)"></path><path d="M42.17 214.28L69.33 214.28L69.33 241.44L42.17 241.44z" fill="rgba(253, 215, 61, 1)"></path><path d="M304.54 149.65 a41.5 41.5 0 1 0 83 0 a41.5 41.5 0 1 0 -83 0z" fill="rgba(253, 215, 61, 1)"></path><path d="M947.11 43.2 a9.47 9.47 0 1 0 18.94 0 a9.47 9.47 0 1 0 -18.94 0z" fill="rgba(181, 228, 184, 1)"></path><path d="M322.19 287.83L339.45 287.83L339.45 300.61L322.19 300.61z" stroke="rgba(253, 215, 61, 1)"></path><path d="M1297.5 376.71L1302.44 376.71L1302.44 381.65L1297.5 381.65z" fill="rgba(201, 222, 251, 1)"></path><path d="M1122.06 245.58L1127.01 245.58L1127.01 272.16L1122.06 272.16z" fill="rgba(253, 215, 61, 1)"></path><path d="M1256.11 183.65L1263.45 183.65L1263.45 190.99L1256.11 190.99z" stroke="rgba(201, 222, 251, 1)"></path><path d="M382.23 554.68a55.74 55.74 0 1 0-111.32 6.01z" fill="rgba(255, 231, 137, 1)"></path><path d="M1330.96 32.51a53.45 53.45 0 1 0 97.86-43.02z" stroke="rgba(253, 215, 61, 1)"></path><path d="M931.64 298.58L934.1 298.58L934.1 301.04L931.64 301.04z" fill="rgba(74, 144, 246, 1)"></path><path d="M1056.59 169.68L1067.5 169.68L1067.5 180.59L1056.59 180.59z" stroke="rgba(253, 215, 61, 1)"></path><path d="M282.78 413.86 a13.4 13.4 0 1 0 26.8 0 a13.4 13.4 0 1 0 -26.8 0z" stroke="rgba(181, 228, 184, 1)"></path><path d="M-12.59 473.69 a19.75 19.75 0 1 0 39.5 0 a19.75 19.75 0 1 0 -39.5 0z" fill="rgba(65, 0, 102, 1)"></path><path d="M289.05 334.15L343.85 334.15L343.85 388.39L289.05 388.39z" fill="rgba(255, 231, 137, 1)"></path><path d="M483.85 69.65 a55.42 55.42 0 1 0 110.84 0 a55.42 55.42 0 1 0 -110.84 0z" fill="rgba(65, 0, 102, 1)"></path><path d="M221.51 318.53L265.78 318.53L265.78 362.8L221.51 362.8z" fill="rgba(74, 144, 246, 1)"></path><path d="M611.14 256.72L615.16 256.72L615.16 281.01L611.14 281.01z" fill="rgba(74, 144, 246, 1)"></path><path d="M489.64 273.18L490.55 273.18L490.55 274.09L489.64 274.09z" fill="rgba(74, 144, 246, 1)"></path><path d="M320.56 8.92 a37.65 37.65 0 1 0 75.3 0 a37.65 37.65 0 1 0 -75.3 0z" fill="rgba(201, 222, 251, 1)"></path><path d="M604.22 207.88a6.95 6.95 0 1 0-8.07-11.32z" stroke="rgba(65, 0, 102, 1)"></path><path d="M1196.43 244.9L1198.02 244.9L1198.02 246.49L1196.43 246.49z" stroke="rgba(255, 231, 137, 1)"></path><path d="M632.06 314.05L657.92 314.05L657.92 339.91L632.06 339.91z" stroke="rgba(65, 0, 102, 1)"></path><path d="M1143.33 463.41 a33.26 33.26 0 1 0 66.52 0 a33.26 33.26 0 1 0 -66.52 0z" fill="rgba(74, 144, 246, 1)"></path><path d="M64.95 178.39 a13.36 13.36 0 1 0 26.72 0 a13.36 13.36 0 1 0 -26.72 0z" fill="rgba(201, 222, 251, 1)"></path><path d="M733.43 280.64L755.23 280.64L755.23 293.58L733.43 293.58z" stroke="rgba(253, 215, 61, 1)"></path><path d="M194.48 40.29L243.55 40.29L243.55 89.36L194.48 89.36z" fill="rgba(201, 222, 251, 1)"></path></g><defs><mask id="SvgjsMask1006"><rect width="1440" height="560" fill="#ffffff"></rect></mask></defs></svg>