<svg xmlns="http://www.w3.org/2000/svg" version="1.1" xmlns:xlink="http://www.w3.org/1999/xlink" xmlns:svgjs="http://svgjs.dev/svgjs" width="1440" height="560" preserveAspectRatio="none" viewBox="0 0 1440 560"><g mask="url(&quot;#SvgjsMask1055&quot;)" fill="none"><rect width="1440" height="560" x="0" y="0" fill="rgba(255, 239, 176, 1)"></rect><path d="M0,650.93C124.121,647.771,140.474,448.209,243.821,379.394C344.365,312.446,512.124,364.827,579.868,264.817C645.791,167.496,581.933,34.609,554.85,-79.775C529.924,-185.047,501.401,-291.342,429.126,-371.84C357.542,-451.568,260.421,-510.378,154.388,-525.798C54.561,-540.315,-36.944,-483.82,-133.193,-453.615C-227.393,-424.053,-324.885,-408.928,-404.421,-350.433C-498.336,-281.363,-609.542,-205.411,-627.332,-90.197C-645.128,25.056,-564.958,133.27,-493.319,225.291C-432.006,304.048,-327.499,326.808,-251.929,392.01C-158.87,472.302,-122.869,654.057,0,650.93" fill="#ffeb9b"></path><path d="M1440 1059.976C1542.212 1074.6100000000001 1650.484 1077.7359999999999 1741.996 1029.915 1837.136 980.198 1915.167 894.51 1950.569 793.169 1984.721 695.406 1953.681 590.432 1930.807 489.433 1909.575 395.683 1877.062 307.66999999999996 1822.667 228.41699999999997 1762.797 141.188 1700.204 48.014999999999986 1601.57 9.743000000000052 1499.828-29.735000000000014 1375.871-35.58600000000001 1280.915 18.20500000000004 1189.269 70.12099999999998 1173.9279999999999 192.20999999999998 1119.878 282.613 1076.724 354.791 1009.836 413.235 995.221 496.05 980.377 580.162 1005.102 664.745 1038.574 743.325 1072.726 823.502 1120.471 896.755 1188.894 950.7280000000001 1262.0430000000001 1008.429 1347.773 1046.772 1440 1059.976" fill="#fff3c6"></path></g><defs><mask id="SvgjsMask1055"><rect width="1440" height="560" fill="#ffffff"></rect></mask></defs></svg>